# xmcd CD database file
#
# Track frame offsets:
#	150
#	19995
#	34010
#	47330
#	60670
#	76772
#	93620
#	106837
#	121342
#	136237
#	150047
#	168402
#	179727
#	190700
#	208862
#	222760
#	240667
#	255140
#	270340
#	284847
#	299640
#	324247
#
# Disc length: 4512 seconds
#
# Revision: 2
# Processed by: cddbd v1.4b41PL1 Copyright (c) Steve Scherf et al.
# Submitted via: Feurio! 1.50.2ß - http://www.feurio.com
#
DISCID=2f119e16
DTITLE=Various Artist - Sentimental Sound
DYEAR=1900
DGENRE=
TTITLE0=??? - Bleib` Nicht Einsam Heut` Nacht
TTITLE1=??? - Roses For You
TTITLE2=??? - Sunset Melody
TTITLE3=??? - Regen Ist Schön
TTITLE4=??? - Aria
TTITLE5=??? - Exiting Hours
TTITLE6=??? - Du, Immer Wieder Du
TTITLE7=??? - Sternenserenade
TTITLE8=??? - Gefühle
TTITLE9=??? - Der Onkel Jonathan
TTITLE10=??? - Song For Julia
TTITLE11=??? - Andante
TTITLE12=??? - Frauen Sind So Schön, Wenn Sie Lieben
TTITLE13=??? - Lonesome
TTITLE14=??? - Killing Me Softly
TTITLE15=??? - California Sunrise
TTITLE16=??? - Einsames Glöckchen
TTITLE17=??? - Easter Melody
TTITLE18=??? - Die Blüten der Blumen
TTITLE19=??? - Nacht Muß Es Sein
TTITLE20=??? - 5 Uhr Morgens
TTITLE21=??? - Alle Kleinen Englein Gehen Jetzt Zur Ruh`
EXTD=
EXTT0=
EXTT1=
EXTT2=
EXTT3=
EXTT4=
EXTT5=
EXTT6=
EXTT7=
EXTT8=
EXTT9=
EXTT10=
EXTT11=
EXTT12=
EXTT13=
EXTT14=
EXTT15=
EXTT16=
EXTT17=
EXTT18=
EXTT19=
EXTT20=
EXTT21=
PLAYORDER=
